<svg xmlns="http://www.w3.org/2000/svg" viewBox="0 0 900 500" fill="none"><defs><pattern id="grid" width="30" height="30" patternUnits="userSpaceOnUse"><path d="M30 0H0V30" stroke="#b3d5ff" stroke-opacity=".09"/></pattern><linearGradient id="bg"><stop stop-color="#0c1e2b"/><stop offset="1" stop-color="#17132e"/></linearGradient></defs><path fill="url(#bg)" d="M0 0h900v500H0z"/><path fill="url(#grid)" d="M0 0h900v500H0z"/><g stroke-width="3" stroke-linejoin="round"><path stroke="#52d6ff" d="M0 150H85l15-8 15 8h35l12 15 17-95 18 135 16-55h50l20-16 20 16h70l15-8 15 8h35l12 15 17-95 18 135 16-55h50l20-16 20 16h70l15-8 15 8h35l12 15 17-95 18 135 16-55h50l20-16 20 16h80"/><path stroke="#8b7cff" d="M0 285q45 0 65-48t40 0 55 35 55 13 65-48 40 0 55 35 55 13 65-48 40 0 55 35 55 13 65-48 40 0 55 35 55 13"/><path stroke="#a8ff78" d="M0 390q50-65 100 0t100 0 100 0 100 0 100 0 100 0 100 0 100 0 100 0"/></g><g fill="#aab0bd" font-family="monospace" font-size="14"><text x="30" y="42">ECG / PPG / RESPIRATION</text><text x="30" y="470">ILLUSTRATIVE SIGNALS · NOT MEASURED DATA</text></g></svg>
